<svg xmlns="http://www.w3.org/2000/svg" xmlns:xlink="http://www.w3.org/1999/xlink" width="500" zoomAndPan="magnify" viewBox="0 0 375 374.999991" height="500" preserveAspectRatio="xMidYMid meet" version="1.0"><defs><clipPath id="df9ff55f65"><path d="M 45.0625 32.753906 L 354.554688 32.753906 L 354.554688 342.246094 L 45.0625 342.246094 Z M 45.0625 32.753906 " clip-rule="nonzero"/></clipPath><clipPath id="5f8dd8679c"><path d="M 199.808594 32.753906 C 114.34375 32.753906 45.0625 102.035156 45.0625 187.5 C 45.0625 272.964844 114.34375 342.246094 199.808594 342.246094 C 285.273438 342.246094 354.554688 272.964844 354.554688 187.5 C 354.554688 102.035156 285.273438 32.753906 199.808594 32.753906 Z M 199.808594 32.753906 " clip-rule="nonzero"/></clipPath><clipPath id="77c0dc25ec"><path d="M 45.0625 32.753906 L 354.554688 32.753906 L 354.554688 342.246094 L 45.0625 342.246094 Z M 45.0625 32.753906 " clip-rule="nonzero"/></clipPath><clipPath id="8064b8c5e6"><path d="M 199.808594 32.753906 C 114.34375 32.753906 45.0625 102.035156 45.0625 187.5 C 45.0625 272.964844 114.34375 342.246094 199.808594 342.246094 C 285.269531 342.246094 354.554688 272.964844 354.554688 187.5 C 354.554688 102.035156 285.269531 32.753906 199.808594 32.753906 Z M 199.808594 32.753906 " clip-rule="nonzero"/></clipPath><clipPath id="ad2f47a6bd"><path d="M 120.476562 74.949219 L 157.128906 74.949219 L 157.128906 301.179688 L 120.476562 301.179688 Z M 120.476562 74.949219 " clip-rule="nonzero"/></clipPath><clipPath id="a0dcfde195"><path d="M 130.976562 74.949219 L 146.628906 74.949219 C 149.414062 74.949219 152.085938 76.058594 154.054688 78.027344 C 156.023438 79.996094 157.128906 82.664062 157.128906 85.449219 L 157.128906 290.597656 C 157.128906 293.382812 156.023438 296.050781 154.054688 298.019531 C 152.085938 299.988281 149.414062 301.097656 146.628906 301.097656 L 130.976562 301.097656 C 128.191406 301.097656 125.519531 299.988281 123.550781 298.019531 C 121.582031 296.050781 120.476562 293.382812 120.476562 290.597656 L 120.476562 85.449219 C 120.476562 82.664062 121.582031 79.996094 123.550781 78.027344 C 125.519531 76.058594 128.191406 74.949219 130.976562 74.949219 Z M 130.976562 74.949219 " clip-rule="nonzero"/></clipPath><clipPath id="5954355dde"><path d="M 147.898438 76.292969 L 274.523438 76.292969 L 274.523438 299.289062 L 147.898438 299.289062 Z M 147.898438 76.292969 " clip-rule="nonzero"/></clipPath><clipPath id="4a81458756"><path d="M 271.300781 194.734375 L 155.734375 297.839844 C 154.351562 299.074219 152.371094 299.382812 150.679688 298.625 C 148.988281 297.867188 147.898438 296.1875 147.898438 294.332031 L 147.898438 81.152344 C 147.898438 79.296875 148.988281 77.617188 150.679688 76.859375 C 152.371094 76.101562 154.351562 76.410156 155.734375 77.644531 L 271.300781 180.75 C 273.292969 182.527344 274.433594 185.074219 274.433594 187.742188 C 274.433594 190.410156 273.292969 192.953125 271.300781 194.734375 Z M 271.300781 194.734375 " clip-rule="nonzero"/></clipPath><clipPath id="7b73b16606"><path d="M 235.8125 69.425781 L 278.394531 69.425781 L 278.394531 305.636719 L 235.8125 305.636719 Z M 235.8125 69.425781 " clip-rule="nonzero"/></clipPath><clipPath id="911372a783"><path d="M 235.8125 101.964844 L 235.8125 273.039062 C 235.8125 276.328125 237.417969 279.410156 240.113281 281.296875 L 274.09375 305.0625 C 274.929688 305.648438 276.019531 305.71875 276.925781 305.246094 C 277.828125 304.777344 278.394531 303.839844 278.394531 302.820312 L 278.394531 72.179688 C 278.394531 71.160156 277.828125 70.226562 276.925781 69.753906 C 276.019531 69.285156 274.929688 69.355469 274.09375 69.9375 L 240.113281 93.703125 C 237.417969 95.589844 235.8125 98.671875 235.8125 101.964844 Z M 235.8125 101.964844 " clip-rule="nonzero"/></clipPath><clipPath id="abbc43f31e"><path d="M 154.730469 119.75 L 232 119.75 L 232 256.25 L 154.730469 256.25 Z M 154.730469 119.75 " clip-rule="nonzero"/></clipPath><clipPath id="ef82a5a172"><path d="M 229.117188 194.042969 L 161.417969 255.019531 C 160.242188 256.078125 158.554688 256.34375 157.109375 255.703125 C 155.664062 255.058594 154.730469 253.625 154.730469 252.042969 L 154.730469 124 C 154.730469 122.417969 155.664062 120.984375 157.109375 120.339844 C 158.554688 119.695312 160.242188 119.964844 161.417969 121.023438 L 229.117188 182 C 230.824219 183.535156 231.800781 185.722656 231.800781 188.019531 C 231.800781 190.316406 230.824219 192.507812 229.117188 194.042969 Z M 229.117188 194.042969 " clip-rule="nonzero"/></clipPath></defs><rect x="-37.5" width="450" fill="#ffffff" y="-37.499999" height="449.999989" fill-opacity="1"/><rect x="-37.5" width="450" fill="#ffffff" y="-37.499999" height="449.999989" fill-opacity="1"/><g clip-path="url(#df9ff55f65)"><g clip-path="url(#5f8dd8679c)"><path fill="#ffffff" d="M 45.0625 32.753906 L 354.554688 32.753906 L 354.554688 342.246094 L 45.0625 342.246094 Z M 45.0625 32.753906 " fill-opacity="1" fill-rule="nonzero"/></g></g><g clip-path="url(#77c0dc25ec)"><g clip-path="url(#8064b8c5e6)"><path stroke-linecap="butt" transform="matrix(0.75, 0, 0, 0.75, 45.061137, 32.753574)" fill="none" stroke-linejoin="miter" d="M 206.329969 0.000442348 C 92.37683 0.000442348 0.00181768 92.375454 0.00181768 206.328594 C 0.00181768 320.281734 92.37683 412.656746 206.329969 412.656746 C 320.277901 412.656746 412.658121 320.281734 412.658121 206.328594 C 412.658121 92.375454 320.277901 0.000442348 206.329969 0.000442348 Z M 206.329969 0.000442348 " stroke="#000000" stroke-width="14" stroke-opacity="1" stroke-miterlimit="4"/></g></g><g clip-path="url(#ad2f47a6bd)"><g clip-path="url(#a0dcfde195)"><path fill="#000000" d="M 120.476562 74.949219 L 157.128906 74.949219 L 157.128906 301.035156 L 120.476562 301.035156 Z M 120.476562 74.949219 " fill-opacity="1" fill-rule="nonzero"/></g></g><g clip-path="url(#5954355dde)"><g clip-path="url(#4a81458756)"><path fill="#000000" d="M 279.136719 70.652344 L 279.136719 304.929688 L 147.898438 304.929688 L 147.898438 70.652344 Z M 279.136719 70.652344 " fill-opacity="1" fill-rule="nonzero"/></g></g><g clip-path="url(#7b73b16606)"><g clip-path="url(#911372a783)"><path fill="#000000" d="M 278.394531 66.929688 L 278.394531 308.132812 L 235.8125 308.132812 L 235.8125 66.929688 Z M 278.394531 66.929688 " fill-opacity="1" fill-rule="nonzero"/></g></g><path stroke-linecap="butt" transform="matrix(0.0120852, 0.729005, -0.729005, 0.0120852, 137.984088, 74.91918)" fill="none" stroke-linejoin="miter" d="M -0.00263723 1.998221 L 310.223303 2.002409 " stroke="#ffffff" stroke-width="4" stroke-opacity="1" stroke-miterlimit="4"/><path stroke-linecap="butt" transform="matrix(0.54446, 0.48493, -0.48493, 0.54446, 148.872871, 88.006489)" fill="none" stroke-linejoin="miter" d="M -0.00219816 1.998908 L 201.546774 2.001097 " stroke="#ffffff" stroke-width="4" stroke-opacity="1" stroke-miterlimit="4"/><g clip-path="url(#abbc43f31e)"><g clip-path="url(#ef82a5a172)"><path fill="#ffffff" d="M 235.804688 115 L 235.804688 261 L 154.730469 261 L 154.730469 115 Z M 235.804688 115 " fill-opacity="1" fill-rule="nonzero"/></g></g><path stroke-linecap="butt" transform="matrix(-0.548154, 0.480751, -0.480751, -0.548154, 258.607545, 189.120763)" fill="none" stroke-linejoin="miter" d="M 0.000638336 2.002417 L 200.205804 2.000306 " stroke="#ffffff" stroke-width="4" stroke-opacity="1" stroke-miterlimit="4"/><path stroke-linecap="butt" transform="matrix(0.00529429, 0.729086, -0.729086, 0.00529429, 258.18989, 81.812001)" fill="none" stroke-linejoin="miter" d="M 0.00222195 2.00173 L 300.03553 1.999835 " stroke="#ffffff" stroke-width="4" stroke-opacity="1" stroke-miterlimit="4"/></svg>